<svg class="wms-wordmark" width="100%" height="100%" id="wms_wordmark" data-name="Layer 1"
    xmlns="http://www.w3.org/2000/svg" viewBox="0 0 1010.27 177.38">
    <desc>Go to Williams College Home</desc>
    <defs></defs>
    <g stroke="none" stroke-width="1" fill="none" fill-rule="evenodd">
        <g transform="translate(1.000000, 1.000000)" fill-rule="nonzero" fill="#FFFFFF" class="Animate-Draw">
            <path class="wms_wordmark_w"
                d="M505.2,587.82h15.54L481.23,471.94H464.8V448.85h59.27v23.09H506.31L537,564.73l34.63-92.79H555.15V448.85h59.5v23.09H597.11l34.63,93,32.19-93H646V448.85h58.61v23.09H688.13L646.62,587.82h16v23.09H601.11V587.82h16.2l-33.07-89.24-33.3,89.24H566.7v23.09H505.2Z"
                transform="translate(-464.8 -435.97)" />
            <path class="wms_wordmark_i"
                d="M712.33,588h18.2V513.89H713.44V491h41.07v97h18.2v22.87H712.33ZM741.85,437.3c10.44,0,17.76,7.55,17.76,17.76s-7.32,17.76-17.76,17.76-17.54-7.54-17.54-17.76S731.64,437.3,741.85,437.3Z"
                transform="translate(-464.8 -435.97)" />
            <path class="wms_wordmark_l1" d="M787.36,588H802.9V458.84H787.14V436h39.74V588h15.54v22.87H787.36Z"
                transform="translate(-464.8 -435.97)" />
            <path class="wms_wordmark_l2" d="M857.07,588h15.54V458.84H856.85V436h39.73V588h15.54v22.87h-55Z"
                transform="translate(-464.8 -435.97)" />
            <path class="wms_wordmark_i"
                d="M926.33,588h18.2V513.89H927.44V491h41.07v97h18.2v22.87H926.33ZM955.86,437.3c10.43,0,17.76,7.55,17.76,17.76s-7.33,17.76-17.76,17.76-17.54-7.54-17.54-17.76S945.64,437.3,955.86,437.3Z"
                transform="translate(-464.8 -435.97)" />
            <path class="wms_wordmark_a"
                d="M990.93,551.19c0-37.74,28.86-62.6,57.28-62.6,23.31,0,38.85,9.1,44,26.86V491h38.63v22.86H1115V588h15.76v22.87h-38.63V583.38c-5.1,18.65-20.42,30-44.18,30C1020,613.35,990.93,588,990.93,551.19Zm102.12-.44c0-22-16.65-39.74-39.07-39.74-22,0-38.41,17.31-38.41,39.74s16.43,40,38.41,40C1076.4,590.71,1093.05,573,1093.05,550.75Z"
                transform="translate(-464.8 -435.97)" />
            <path class="wms_wordmark_m"
                d="M1145.43,588H1161V513.89h-15.76V491h39.51v21.09c6.22-14.43,19.09-23.53,36.63-23.53,20.2,0,32.86,10.21,38.19,26.19,6.43-15.32,20-26.19,39.07-26.19,30.41,0,45.06,19.75,45.06,50.61V588h15.1v22.87h-54.83V588h15.54V540.53c0-18.64-8.22-30.85-27.09-30.85-17.09,0-28.19,11.1-28.19,33.07V588h14.87v22.87h-53.94V588H1240V539c0-18.2-8.21-29.3-26.42-29.3-17.76,0-28.64,11.54-28.64,34.18V588h15.54v22.87h-55Z"
                transform="translate(-464.8 -435.97)" />
            <path class="wms_wordmark_s"
                d="M1394,589.6l1.77,9.1v12.21h-22.42V567.84H1394c6,13.1,20.64,24.64,38,24.64,12.88,0,19.09-6,19.09-15.76,0-11.1-15.54-13.54-32.85-17.09-21.31-4.22-45.29-10.22-45.29-36.41,0-19.32,14.87-35.08,38.4-34.86,18.65,0,32.19,7.77,37.3,21.32l-1.55-8.88V491h22.42V530.1h-20.65c-5.33-12.88-16.87-21.76-33.74-21.76-12,0-17.76,6.22-17.76,14.21,0,10.88,15.32,13.54,32.41,17.1,21.31,4.44,45.29,10.65,45.29,36.63,0,20.64-14.65,37.29-38,37.07C1416.24,613.35,1399.81,603.8,1394,589.6Z"
                transform="translate(-464.8 -435.97)" />
        </g>
    </g>
</svg>