<svg class="wms-stacked" width="100%" height="100%" viewBox="0 0 1011 415" version="1.1"
    xmlns="http://www.w3.org/2000/svg" xmlns:xlink="http://www.w3.org/1999/xlink">
    <title>Williams College</title>
    <g id="Page-1" stroke="none" stroke-width="1" fill="none" fill-rule="evenodd">
        <g id="WILLIAMS_COLLEGE_WORDMARK_TOP" fill="#FFFFFF" fill-rule="nonzero">
            <polygon id="Path"
                points="40.4 151.84 55.94 151.84 16.43 35.96 0 35.96 0 12.87 59.27 12.87 59.27 35.96 41.51 35.96 72.2 128.76 106.83 35.96 90.35 35.96 90.35 12.87 149.85 12.87 149.85 35.96 132.31 35.96 166.94 128.96 199.13 35.96 181.2 35.96 181.2 12.87 239.81 12.87 239.81 35.96 223.33 35.96 181.82 151.84 197.82 151.84 197.82 174.93 136.31 174.93 136.31 151.84 152.51 151.84 119.44 62.6 86.14 151.84 101.9 151.84 101.9 174.93 40.4 174.93">
            </polygon>
            <path
                d="M247.53,152.07 L265.73,152.07 L265.73,77.92 L248.64,77.92 L248.64,55.05 L289.71,55.05 L289.71,152.05 L307.91,152.05 L307.91,174.93 L247.53,174.93 L247.53,152.07 Z M277.05,1.33 C287.49,1.33 294.81,8.88 294.81,19.09 C294.81,29.3 287.49,36.85 277.05,36.85 C266.61,36.85 259.51,29.3 259.51,19.09 C259.51,8.88 266.84,1.33 277.05,1.33 Z"
                id="Shape"></path>
            <polygon id="Path"
                points="322.56 152.07 338.1 152.07 338.1 22.86 322.34 22.86 322.34 0 362.08 0 362.08 152.07 377.62 152.07 377.62 174.93 322.56 174.93">
            </polygon>
            <polygon id="Path"
                points="392.27 152.07 407.81 152.07 407.81 22.86 392.05 22.86 392.05 0 431.78 0 431.78 152.07 447.32 152.07 447.32 174.93 392.32 174.93">
            </polygon>
            <path
                d="M461.53,152.07 L479.73,152.07 L479.73,77.92 L462.64,77.92 L462.64,55.05 L503.71,55.05 L503.71,152.05 L521.91,152.05 L521.91,174.93 L461.53,174.93 L461.53,152.07 Z M491.06,1.33 C501.49,1.33 508.82,8.88 508.82,19.09 C508.82,29.3 501.49,36.85 491.06,36.85 C480.63,36.85 473.52,29.3 473.52,19.09 C473.52,8.88 480.84,1.33 491.06,1.33 Z"
                id="Shape"></path>
            <path
                d="M526.13,115.21 C526.13,77.47 554.99,52.61 583.41,52.61 C606.72,52.61 622.26,61.71 627.41,79.47 L627.41,55.05 L666.04,55.05 L666.04,77.92 L650.2,77.92 L650.2,152.07 L665.96,152.07 L665.96,174.93 L627.33,174.93 L627.33,147.4 C622.23,166.05 606.91,177.4 583.15,177.4 C555.2,177.37 526.13,152.07 526.13,115.21 Z M628.25,114.77 C628.25,92.77 611.6,75.03 589.18,75.03 C567.18,75.03 550.77,92.35 550.77,114.77 C550.77,137.19 567.2,154.77 589.18,154.77 C611.6,154.73 628.25,136.97 628.25,114.77 Z"
                id="Shape"></path>
            <path
                d="M680.63,152.07 L696.2,152.07 L696.2,77.92 L680.44,77.92 L680.44,55.05 L719.95,55.05 L719.95,76.14 C726.17,61.71 739.04,52.61 756.58,52.61 C776.78,52.61 789.44,62.82 794.77,78.81 C801.2,63.49 814.77,52.61 833.84,52.61 C864.25,52.61 878.9,72.37 878.9,103.23 L878.9,152.07 L894,152.07 L894,174.93 L839.17,174.93 L839.17,152.07 L854.71,152.07 L854.71,104.53 C854.71,85.88 846.49,73.67 827.62,73.67 C810.53,73.67 799.43,84.77 799.43,106.75 L799.43,152.04 L814.3,152.04 L814.3,174.93 L760.36,174.93 L760.36,152.07 L775.2,152.07 L775.2,103 C775.2,84.8 766.99,73.7 748.78,73.7 C731.02,73.7 720.14,85.24 720.14,107.89 L720.14,152.07 L735.68,152.07 L735.68,174.93 L680.68,174.93 L680.63,152.07 Z"
                id="Path"></path>
            <path
                d="M929.2,153.62 L930.97,162.72 L930.97,174.93 L908.55,174.93 L908.55,131.86 L929.2,131.86 C935.2,144.96 949.84,156.51 967.2,156.51 C980.08,156.51 986.29,150.51 986.29,140.74 C986.29,129.64 970.75,127.2 953.44,123.65 C932.13,119.43 908.15,113.44 908.15,87.24 C908.15,67.93 923.02,52.17 946.55,52.39 C965.2,52.39 978.74,60.16 983.85,73.7 L982.3,64.82 L982.3,55.05 L1004.72,55.05 L1004.72,94.12 L984.07,94.12 C978.74,81.25 967.2,72.37 950.33,72.37 C938.33,72.37 932.57,78.58 932.57,86.58 C932.57,97.45 947.89,100.12 964.98,103.67 C986.29,108.11 1010.27,114.33 1010.27,140.3 C1010.27,160.95 995.62,177.6 972.27,177.37 C951.44,177.37 935.01,167.83 929.2,153.62 Z"
                id="Path"></path>

        </g>
        <g id="WILLIAMS_COLLEGE_WORDMARK_BOTTOM" fill="#FFFFFF" fill-rule="nonzero">
            <path
                d="M23.53,283.27 C23.53,235.98 60.82,200.02 105.22,200.02 C127.65,200.02 146.07,208.02 154.51,225.33 L153.2,216.89 L153.2,202.24 L176.51,202.24 L176.51,253.96 L153.86,254.19 C146.52,235.53 131.2,223.77 105.67,223.77 C73.48,223.77 48.39,250.19 48.39,283.27 C48.39,315.9 73.26,342.27 106.56,342.27 C131.42,342.27 149.62,328.95 158.95,309.41 L180.7,320.96 C166.7,348.04 139.86,366.470072 106.78,366.470072 C58.83,366.53 23.53,329.22 23.53,283.27 Z"
                id="Path"></path>
            <path
                d="M191.359572,304.36 C191.359572,269.908477 219.288477,241.98 253.74,241.98 C288.191523,241.98 316.12,269.908477 316.12,304.36 C316.12,338.811523 288.191523,366.740428 253.74,366.740428 C237.177046,366.801409 221.274744,360.248971 209.562886,348.537114 C197.851029,336.825256 191.298591,320.922954 191.359572,304.36 Z M291.7,304.36 C291.7,282.6 274.83,265.06 253.7,265.06 C232.39,265.06 215.96,282.6 215.96,304.36 C215.96,326.12 232.39,343.65 253.7,343.65 C275.01,343.65 291.7,326.11 291.7,304.36 Z"
                id="Shape"></path>
            <polygon id="Path"
                points="322.78 341.43 338.32 341.43 338.32 212.23 322.56 212.23 322.56 189.36 362.3 189.36 362.3 341.43 377.84 341.43 377.84 364.3 322.78 364.3">
            </polygon>
            <polygon id="Path"
                points="392.49 341.43 408.03 341.43 408.03 212.23 392.27 212.23 392.27 189.36 432.01 189.36 432.01 341.43 447.55 341.43 447.55 364.3 392.49 364.3">
            </polygon>
            <path
                d="M455.31,304.8 C455.31,269.5 482.4,241.98 517.7,241.98 C553,241.98 579.2,267.73 579.2,303.25 L579.2,313.25 L479.07,313.25 C482.62,332.12 497.49,344.77 519.07,344.77 C535.72,344.77 546.37,337 553.48,325.68 L573.9,337.89 C562.36,355.21 545.04,366.75 519.07,366.75 C480.84,366.74 455.31,339.66 455.31,304.8 Z M479.96,292.8 L554.33,292.8 C550.77,274.38 537.01,263.72 517.7,263.72 C499.27,263.73 484.62,275.72 479.96,292.81 L479.96,292.8 Z"
                id="Shape"></path>
            <path
                d="M592.51,304.14 C592.51,266.4 621.37,241.98 649.78,241.98 C672.87,241.98 688.19,251.08 693.3,268.39 L693.3,244.39 L733.03,244.39 L733.03,267.25 L717.27,267.25 L717.27,354.72 C717.27,390.24 690.63,414.44 656.27,414.44 C627.41,414.44 609.43,405.56 596.55,389.35 L615.87,373.59 C625.19,386.47 636.29,392.46 655.87,392.46 C678.73,392.46 693.61,377.37 693.61,355.61 L693.61,336.1 C688.95,355.2 673.85,366.74 649.87,366.74 C621.81,366.74 592.51,340.99 592.51,304.14 Z M694.63,304.14 C694.63,282.14 677.98,264.4 655.56,264.4 C633.56,264.4 617.15,281.71 617.15,304.14 C617.15,326.57 633.58,344.14 655.56,344.14 C677.98,344.1 694.63,326.34 694.63,304.14 L694.63,304.14 Z"
                id="Shape"></path>
            <path
                d="M738.14,304.8 C738.14,269.5 765.22,241.98 800.52,241.98 C835.82,241.98 862.02,267.73 862.02,303.25 L862.02,313.25 L761.89,313.25 C765.45,332.12 780.32,344.77 801.89,344.77 C818.54,344.77 829.2,337 836.3,325.68 L856.73,337.89 C845.18,355.21 827.87,366.75 801.89,366.75 C763.67,366.74 738.14,339.66 738.14,304.8 Z M762.78,292.8 L837.2,292.8 C833.65,274.38 819.89,263.72 800.57,263.72 C782.1,263.73 767.44,275.72 762.78,292.81 L762.78,292.8 Z"
                id="Shape"></path>
        </g>
    </g>
</svg>